<svg width="28" height="29" viewBox="0 0 28 29" fill="none" xmlns="http://www.w3.org/2000/svg">
<path fill-rule="evenodd" clip-rule="evenodd" d="M25.6668 4.76575C24.5002 5.33742 23.3568 5.56958 22.1668 5.92075C20.859 4.44492 18.92 4.36325 17.0568 5.06092C15.1937 5.75858 13.9733 7.46425 14.0002 9.42075V10.5874C10.2143 10.6843 6.84266 8.95992 4.66683 5.92075C4.66683 5.92075 -0.212171 14.5926 9.3335 18.7541C7.1495 20.2089 4.97133 21.1901 2.3335 21.0874C6.19283 23.1909 10.3987 23.9142 14.0398 22.8572C18.2165 21.6439 21.6488 18.5138 22.966 13.8249C23.3589 12.3989 23.554 10.9256 23.5458 9.44642C23.5435 9.15592 25.3075 6.21242 25.6668 4.76458V4.76575Z" stroke="#807E7E" stroke-width="1.79419" stroke-linecap="round" stroke-linejoin="round"/>
</svg>
