<svg width="32" height="30" viewBox="0 0 32 30" fill="none" xmlns="http://www.w3.org/2000/svg">
<path fill-rule="evenodd" clip-rule="evenodd" d="M15.8954 11.3801L16.6725 10.7051L17.9869 9.56357V1.90243C17.9869 0.899321 17.0504 0.0859375 15.8954 0.0859375C14.7404 0.0859375 13.8039 0.899321 13.8039 1.90243V9.56357L15.1183 10.7051L15.8954 11.3801ZM15.8954 20.7918L15.1183 21.4667L13.8039 22.6083V30.2694C13.8039 31.2726 14.7404 32.0859 15.8954 32.0859C17.0504 32.0859 17.9869 31.2726 17.9869 30.2694V22.6083L16.6725 21.4667L15.8954 20.7918ZM21.3804 15.2043L22.5224 13.8899H30.1835C31.1866 13.8899 32 14.8264 32 15.9814C32 17.1363 31.1866 18.0729 30.1835 18.0729H22.5224L21.3804 16.7585L20.7059 15.9814L21.3804 15.2043ZM11.2941 15.9814L10.6192 15.2043L9.47763 13.8899H1.81649C0.813383 13.8899 0 14.8264 0 15.9814C0 17.1363 0.813383 18.0729 1.81649 18.0729H9.47763L10.6192 16.7585L11.2941 15.9814ZM12.4737 17.0271L15.0588 19.6122L14.3796 20.2914L7.30343 27.3675C6.94637 27.7246 6.47882 27.9029 6.01086 27.9029C5.77688 27.9029 5.54331 27.8582 5.32314 27.7689C5.10298 27.6799 4.89703 27.5459 4.71829 27.3675C4.00458 26.6538 4.00458 25.4961 4.71829 24.7824L11.7945 17.7063L12.4737 17.0271ZM16.9412 12.5597L19.5263 15.1448L20.2055 14.4656L27.2817 7.38944C27.9954 6.67573 27.9954 5.51844 27.2817 4.80433C27.103 4.626 26.897 4.49195 26.6769 4.40299C26.4571 4.31363 26.2231 4.26894 25.9891 4.26894C25.5212 4.26894 25.0536 4.44727 24.6966 4.80433L17.6204 11.8805L16.9412 12.5597ZM15.5817 13.1272L18.1221 15.6676L19.9185 17.464L26.8724 24.418C27.5741 25.1198 27.5741 26.2571 26.8724 26.9585C26.5219 27.3094 26.062 27.4846 25.6021 27.4846C25.1427 27.4846 24.6828 27.3094 24.3319 26.9585L17.378 20.0045L15.5817 18.2081L13.0413 15.6676L11.2449 13.8713L4.29104 6.91727C3.58926 6.21548 3.58926 5.07817 4.29104 4.37678C4.37846 4.28896 4.47307 4.21231 4.57286 4.14645C4.77206 4.01511 4.99161 3.92729 5.21795 3.88338C5.33132 3.86142 5.44629 3.85064 5.56126 3.85064C6.02072 3.85064 6.48059 4.02589 6.83148 4.37678L13.7853 11.3308L15.5817 13.1272Z" fill="#3E3E59"/>
</svg>
