<svg width="20" height="21" viewBox="0 0 20 21" fill="none" xmlns="http://www.w3.org/2000/svg">
<path fill-rule="evenodd" clip-rule="evenodd" d="M9.83612 20.0879C9.83612 17.4585 8.85285 15.1604 6.88977 13.1969C4.92669 11.2335 2.62895 10.2501 0 10.2501V9.92916C2.62895 9.92916 4.92669 8.94572 6.88977 6.97885C8.81262 5.04553 9.79541 2.801 9.83488 0.24852C9.83625 0.159928 9.90795 0.0878906 9.99655 0.0878906C10.0852 0.0878906 10.1568 0.159936 10.1582 0.248527C10.1975 2.81099 11.1803 5.05551 13.1033 6.97885C15.0664 8.94227 17.3642 9.92571 19.9931 9.92571V10.2466C17.3642 10.2466 15.0664 11.2301 13.1033 13.1935C11.1402 15.1604 10.157 17.4585 10.157 20.0879" fill="#121212"/>
</svg>
