<svg width="28" height="27" viewBox="0 0 28 27" fill="none" xmlns="http://www.w3.org/2000/svg">
<path fill-rule="evenodd" clip-rule="evenodd" d="M25.6666 4.67786C24.5 5.24953 23.3566 5.48169 22.1666 5.83286C20.8588 4.35703 18.9198 4.27536 17.0566 4.97303C15.1935 5.67069 13.9731 7.37636 14 9.33286V10.4995C10.2141 10.5964 6.84248 8.87203 4.66665 5.83286C4.66665 5.83286 -0.212354 14.5047 9.33331 18.6662C7.14931 20.121 4.97115 21.1022 2.33331 20.9995C6.19265 23.103 10.3985 23.8264 14.0396 22.7694C18.2163 21.556 21.6486 18.4259 22.9658 13.737C23.3587 12.311 23.5538 10.8377 23.5456 9.35853C23.5433 9.06803 25.3073 6.12453 25.6666 4.67669V4.67786Z" stroke="#3C3E49" stroke-width="1.5" stroke-linecap="round" stroke-linejoin="round"/>
</svg>
