<svg width="24" height="25" viewBox="0 0 24 25" fill="none" xmlns="http://www.w3.org/2000/svg">
<path d="M16 8.08789C16 8.64018 16.4477 9.08789 17 9.08789C17.5523 9.08789 18 8.64018 18 8.08789H16ZM18 12.0879C18 12.6402 18.4477 13.0879 19 13.0879C19.5523 13.0879 20 12.6402 20 12.0879H18ZM20 16.0879C20 15.5356 19.5523 15.0879 19 15.0879C18.4477 15.0879 18 15.5356 18 16.0879H20ZM5 6.08789C5 5.53561 4.55228 5.08789 4 5.08789C3.44772 5.08789 3 5.53561 3 6.08789H5ZM18 8.08789V5.08789H16V8.08789H18ZM18 5.08789C18 3.98332 17.1046 3.08789 16 3.08789V5.08789L16 5.08789H18ZM16 3.08789H6V5.08789H16V3.08789ZM6 3.08789C4.34315 3.08789 3 4.43104 3 6.08789H5C5 5.53561 5.44772 5.08789 6 5.08789V3.08789ZM3 6.08789C3 7.74474 4.34315 9.08789 6 9.08789V7.08789C5.44772 7.08789 5 6.64018 5 6.08789H3ZM6 9.08789H18V7.08789H6V9.08789ZM18 9.08789L18 9.08789H20C20 7.98332 19.1046 7.08789 18 7.08789V9.08789ZM18 9.08789V12.0879H20V9.08789H18ZM18 16.0879V19.0879H20V16.0879H18ZM18 19.0879L18 19.0879V21.0879C19.1046 21.0879 20 20.1925 20 19.0879H18ZM18 19.0879H6V21.0879H18V19.0879ZM6 19.0879C5.44771 19.0879 5 18.6402 5 18.0879H3C3 19.7447 4.34315 21.0879 6 21.0879V19.0879ZM5 18.0879V6.08789H3V18.0879H5Z" fill="#212121"/>
<path d="M20 12.0879V16.0879H16C14.8954 16.0879 14 15.1925 14 14.0879C14 12.9833 14.8954 12.0879 16 12.0879H20" stroke="#212121" stroke-width="2" stroke-linecap="round" stroke-linejoin="round"/>
</svg>
